<?xml version="1.0" encoding="utf-8"?>
<svg width="48" height="16" viewBox="0 0 48 16" fill="#660099" xmlns="http://www.w3.org/2000/svg">
<path d="M0.0259184 9.85431C0.0259184 9.74984 0.0259184 9.74984 0.0259184 9.64537C0.718577 7.34696 5.66614 7.24248 7.44726 6.82459C12.2959 5.77986 17.2434 5.25749 22.191 5.25749C23.5763 5.25749 24.9616 5.36197 26.4459 5.46644C28.4249 5.67539 30.5029 5.88433 32.4819 6.19775C32.8777 6.30223 33.2735 6.30223 33.5704 6.4067C33.8672 6.51117 34.362 6.51117 34.263 6.09328C34.1641 5.57091 33.7683 5.15302 33.4714 4.73513C32.9767 4.00381 32.284 3.37697 31.6903 2.64566C30.7008 1.39198 32.1851 0.451724 33.1746 0.138304C34.8567 -0.384062 36.44 0.66067 37.6274 1.80988C39.9033 4.00381 46.6319 11.8393 47.5225 13.5109C48.4131 15.1825 48.1162 16.3317 46.1372 15.9138C44.0592 15.4959 42.0802 14.9735 40.0022 14.6601C37.9242 14.3467 35.8463 14.3467 33.7683 14.3467C31.9872 14.4511 30.1071 14.6601 28.326 14.3467C27.1385 14.1377 26.5448 13.4064 26.6438 12.1527C26.7427 10.899 27.6333 10.7946 28.5239 10.7946C29.9092 10.6901 31.1955 10.6901 32.5809 10.5856C32.7788 10.5856 33.2735 10.4812 33.3725 10.1677C33.4714 9.85432 32.8777 9.64537 32.6798 9.5409C30.6018 8.49616 28.227 8.39169 25.8522 8.07827C23.4774 7.76485 21.1025 7.5559 18.7277 7.5559C17.3424 7.5559 16.056 7.5559 14.6707 7.76485C13.4833 7.86932 12.2959 8.07827 11.2074 8.39169C8.83258 9.01853 7.24936 9.5409 4.77558 10.3767C3.88502 10.6901 -0.369886 11.9438 0.0259184 9.85431Z" fill="#660099"/></svg>