<?xml version="1.0" encoding="utf-8"?>
<svg xmlns="http://www.w3.org/2000/svg" xmlns:xlink="http://www.w3.org/1999/xlink" width="870" height="615" viewBox="0 0 870 615" fill="#000">
<path d="M576.316 605.729L576.315 605.728L383.859 590.444L383.918 589.947C383.918 589.947 383.917 589.947 383.916 589.947C349.276 585.83 315.552 582.052 280.562 582.052C268.184 582.052 255.461 581.875 242.517 581.696C195.572 581.045 145.714 580.353 98.7688 587.891L98.7654 587.892C96.0265 588.351 93.2448 588.926 90.4741 589.499C89.0948 589.785 87.7182 590.069 86.351 590.339C82.2271 591.152 78.1671 591.832 74.273 592.002C66.7874 592 56.6205 590.043 47.386 586.334C38.1308 582.617 29.9205 577.184 26.2252 570.306C25.7222 569.367 25.3357 567.671 25.0553 565.43C24.7775 563.21 24.6108 560.525 24.5126 557.658C24.3578 553.138 24.3738 548.195 24.3876 543.947C24.3913 542.804 24.3948 541.711 24.3948 540.69V540.675C24.3948 512.89 24.3948 469.296 21.5581 440.106L21.558 440.104C17.5394 400.074 14.8291 359.187 12.2339 320.034C11.9824 316.24 11.732 312.463 11.4816 308.704L11.4815 308.703C9.3893 278.385 9.24416 247.021 9.10474 216.893C9.03436 201.685 8.96544 186.792 8.64827 172.507C8.43227 156.036 7.92004 140.045 7.41641 124.322C7.18554 117.114 6.95647 109.963 6.75858 102.848C6.54946 94.9873 6.54933 87.1114 6.54921 79.3157C6.54895 63.6927 6.5487 48.3921 4.86631 34.1825C4.3974 29.4104 4.31948 22.9288 4.98412 17.0504C5.31655 14.1103 5.83317 11.3355 6.57291 9.00714C7.31601 6.66818 8.26811 4.83234 9.43814 3.7169L9.4462 3.70922L9.45391 3.70119C11.1265 1.95809 14.3415 1.02161 18.5679 0.668637C22.7608 0.318451 27.8145 0.551148 33.0221 1.02219C37.3733 1.41576 41.8132 1.97378 45.9301 2.4912C46.7383 2.59276 47.5339 2.69276 48.3141 2.78965C53.0516 3.37803 57.2361 3.85455 60.1076 3.85501C70.2588 4.02243 80.1082 3.61792 89.3136 3.23987L90.0112 3.21123C99.424 2.82503 108.14 2.48319 115.83 2.82506C156.166 4.88501 182.01 3.85469 215.403 1.79532L215.407 1.79502C234.898 0.424973 254.238 1.28083 272.618 2.43863C276.202 2.66439 279.751 2.90172 283.257 3.13622C297.719 4.10347 311.462 5.02266 324.028 4.88438L324.033 4.88429C339.707 4.56803 354.914 5.05409 369.976 5.53551C371.24 5.57592 372.503 5.6163 373.766 5.65617C390.063 6.17085 406.22 6.60044 422.617 5.91333C430.764 5.57193 439.391 6.33986 448.286 7.32611C450.188 7.53699 452.102 7.75789 454.026 7.97993C461.089 8.79496 468.284 9.6252 475.476 10.0305L475.477 10.0305C479.145 10.2287 482.789 10.4269 486.417 10.6241C520.477 12.4761 553.057 14.2475 589.495 15.178C605.969 15.6185 622.676 16.2359 639.561 16.86C675.266 18.1796 711.768 19.5287 748.551 19.2958L748.562 19.2955C752.421 19.1839 756.278 19.0602 760.13 18.9368C791.756 17.9233 823.013 16.9216 851.537 22.6747C853.462 25.6962 855.585 27.913 857.465 29.8768C857.585 30.0021 857.703 30.1264 857.821 30.2498C859.837 32.3593 861.498 34.1806 862.402 36.4781C863.773 39.9639 863.786 44.5747 863.431 50.2894C863.338 51.7954 863.219 53.3753 863.095 55.0252C862.751 59.5956 862.367 64.703 862.367 70.2646C862.367 100.801 862.682 147.134 864.258 177.686C865.461 204.995 864.748 237.432 864.072 268.214C863.686 285.767 863.312 302.782 863.312 318.001C863.312 366.725 863.312 409.963 864.257 464.182C864.355 470.14 864.573 476.223 864.8 482.544C865.306 496.644 865.854 511.934 865.202 529.692C864.73 542.048 864.1 556.083 861.981 568.183C860.922 574.232 859.493 579.777 857.536 584.377C855.577 588.98 853.105 592.597 849.981 594.84C846.287 597.438 840.387 599.458 833.164 601.01C825.955 602.558 817.485 603.628 808.698 604.357C791.125 605.813 772.327 605.899 759.894 605.727C735.6 605.32 711.748 605.933 687.864 606.546C681.548 606.708 675.229 606.871 668.899 607.014C638.63 607.7 608.1 607.957 576.316 605.729Z" fill="black" stroke="black"/>
</svg>