<?xml version="1.0" encoding="utf-8"?>
<svg width="176" height="15" viewBox="0 0 176 15" fill="none" xmlns="http://www.w3.org/2000/svg">
<path d="M167.891 4.7084L168.206 4.71375L168.347 4.43208C168.418 4.29057 168.485 4.0909 168.545 3.89694C168.595 3.73499 168.648 3.55017 168.702 3.36341C168.716 3.31645 168.729 3.26937 168.743 3.2225C168.878 2.75559 169.009 2.32477 169.13 2.06863C169.538 1.5183 169.861 1.13266 170.145 0.876904C170.432 0.619237 170.642 0.526097 170.821 0.505045C171.002 0.483733 171.232 0.526653 171.578 0.705579C171.922 0.884071 172.336 1.17336 172.873 1.5879C173.978 2.64906 174.446 3.51385 174.515 4.19643C174.58 4.84107 174.299 5.44014 173.585 6.02041L173.565 6.03668L173.546 6.05492C172.746 6.85582 172.015 7.18347 171.425 7.18347C170.862 7.18347 170.303 6.88443 169.82 6.13684L169.676 5.91492L169.412 5.90861L123.312 4.80861L123.312 4.80847H123.3C109.3 4.80847 101.759 5.30764 97.5856 6.06653C95.4993 6.44585 94.21 6.8972 93.367 7.41329C92.5352 7.92257 92.1629 8.4802 91.8909 9.00962C90.9899 9.88378 89.9053 10.2915 88.8497 10.186C87.7837 10.0793 86.6641 9.44048 85.7331 8.05659L85.7228 8.036C85.4939 7.57785 85.2742 7.1381 84.9504 6.81429C84.5821 6.446 84.1195 6.25756 83.4802 6.18653C82.8616 6.11779 82.035 6.15436 80.8929 6.26388C79.7451 6.37394 78.2394 6.56215 76.247 6.81121L76.238 6.81233L76.208 6.81608L76.1787 6.8234C75.2337 7.05965 73.8419 7.18389 72.1256 7.2463C70.4178 7.3084 68.4277 7.30847 66.3 7.30847H66.2809C62.0502 7.30847 57.2831 7.30847 53.2559 7.81009C41.7307 8.41268 15.3413 11.0119 6.64289 12.0117L6.41257 12.0382L6.28396 12.2311C6.08165 12.5346 5.94495 12.727 5.67638 12.8613L5.60381 12.8975L5.54644 12.9549C4.74553 13.7558 4.01533 14.0835 3.42499 14.0835C2.86228 14.0835 2.30351 13.7844 1.81977 13.0368L1.791 12.9924L1.75354 12.9549C0.898574 12.0999 0.599192 11.6349 0.546565 11.1875C0.492377 10.727 0.681587 10.1675 1.22786 9.07084C1.6385 8.51702 1.95754 8.12938 2.23518 7.87206C2.51517 7.61256 2.71203 7.52451 2.87326 7.50476C3.03625 7.48481 3.25082 7.52379 3.58907 7.70327C3.92839 7.88332 4.33948 8.17572 4.88406 8.59623C5.51803 9.14192 5.87776 9.68204 6.15278 10.2321L6.29097 10.5085H6.59999C10.266 10.5085 17.1538 10.2076 23.492 9.8326C26.6631 9.64496 29.7013 9.43847 32.1357 9.24121C34.5557 9.04512 36.4133 8.85571 37.198 8.69876L37.2286 8.69265L37.2581 8.68281C38.7059 8.20022 41.4122 7.70461 44.6573 7.33017C47.8909 6.95706 51.6216 6.70847 55.1 6.70847C62.0923 6.70847 71.0811 5.71619 75.1612 4.70847H75.1703H75.1937H75.2172H75.2406H75.264H75.2875H75.3109H75.3343H75.3578H75.3812H75.4046H75.428H75.4515H75.4749H75.4983H75.5217H75.5451H75.5685H75.5919H75.6153H75.6387H75.6621H75.6855H75.7088H75.7322H75.7556H75.779H75.8023H75.8257H75.849H75.8724H75.8957H75.919H75.9424H75.9657H75.989H76.0123H76.0356H76.0589H76.0822H76.1054H76.1287H76.152H76.1752H76.1985H76.2217H76.2449H76.2681H76.2914H76.3146H76.3377H76.3609H76.3841H76.4073H76.4304H76.4536H76.4767H76.4998H76.5229H76.546H76.5691H76.5922H76.6152H76.6383H76.6613H76.6844H76.7074H76.7304H76.7534H76.7764H76.7993H76.8223H76.8452H76.8682H76.8911H76.914H76.9369H76.9597H76.9826H77.0054H77.0283H77.0511H77.0739H77.0967H77.1194H77.1422H77.1649H77.1876H77.2103H77.233H77.2557H77.2784H77.301H77.3236H77.3462H77.3688H77.3914H77.4139H77.4365H77.459H77.4815H77.504H77.5264H77.5489H77.5713H77.5937H77.6161H77.6385H77.6608H77.6831H77.7054H77.7277H77.75H77.7722H77.7944H77.8167H77.8388H77.861H77.8831H77.9053H77.9273H77.9494H77.9715H77.9935H78.0155H78.0375H78.0594H78.0814H78.1033H78.1252H78.1471H78.1689H78.1907H78.2125H78.2343H78.256H78.2778H78.2995H78.3211H78.3428H78.3644H78.386H78.4076H78.4291H78.4506H78.4721H78.4936H78.515H78.5364H78.5578H78.5792H78.6005H78.6218H78.6431H78.6643H78.6856H78.7068H78.7279H78.7491H78.7702H78.7912H78.8123H78.8333H78.8543H78.8753H78.8962H78.9171H78.938H78.9588H78.9796H79.0004H79.0211H79.0418H79.0625H79.0832H79.1038H79.1244H79.1449H79.1655H79.186H79.2064H79.2268H79.2472H79.2676H79.2879H79.3082H79.3285H79.3487H79.3689H79.3891H79.4092H79.4293H79.4493H79.4693H79.4893H79.5093H79.5292H79.5491H79.5689H79.5887H79.6085H79.6282H79.6479H79.6676H79.6872H79.7068H79.7264H79.7459H79.7653H79.7848H79.8042H79.8235H79.8429H79.8622H79.8814H79.9006H79.9198H79.9389H79.958H79.9771H79.9961H80.015H80.034H80.0528H80.0717H80.0905H80.1093H80.128H80.1467H80.1653H80.184H80.2025H80.221H80.2395H80.2579H80.2763H80.2947H80.313H80.3313H80.3495H80.3677H80.3858H80.4039H80.422H80.44H80.4579H80.4758H80.4937H80.5115H80.5293H80.5471H80.5647H80.5824H80.6H80.6175H80.6351H80.6525H80.6699H80.6873H80.7046H80.7219H80.7391H80.7563H80.7735H80.7905H80.8076H80.8246H80.8415H80.8584H80.8753H80.8921H80.9088H80.9255H80.9422H80.9588H80.9753H80.9918H81.0083H81.0247H81.041H81.0573H81.0736H81.0898H81.1059H81.122H81.1381H81.1541H81.17H81.1859H81.2018H81.2175H81.2333H81.249H81.2646H81.2802H81.2957H81.3112H81.3266H81.3419H81.3573H81.3725H81.3877H81.4029H81.418H81.433H81.448H81.4629H81.4778H81.4926H81.5074H81.5221H81.5367H81.5513H81.5658H81.5803H81.5947H81.6091H81.6234H81.6377H81.6519H81.666H81.6801H81.6941H81.7081H81.722H81.7358H81.7496H81.7634H81.777H81.7906H81.8042H81.8177H81.8311H81.8445H81.8578H81.8711H81.8843H81.8974H81.9105H81.9235H81.9364H81.9493H81.9621H81.9749H81.9876H82.0002H82.0128H82.0253H82.0378H82.0502H82.0625H82.0748H82.087H82.0991H82.1112H82.1232H82.1352H82.147H82.1589H82.1706H82.1823H82.1939H82.2055H82.217H82.2284H82.2398H82.2511H82.2623H82.2735H82.2846H82.2956H82.3065H82.3174H82.3283H82.339H82.3497H82.3604H82.3709H82.3814H82.3918H82.4022H82.4125H82.4227H82.4329H82.4429H82.453H82.4629H82.4728H82.4826H82.4923H82.502H82.5116H82.5211H82.5305H82.5399H82.5492H82.5585H82.5676H82.5767H82.5858H82.5947H82.6036H82.6124H82.6211H82.6298H82.6384H82.6469H82.6554H82.6637H82.672H82.6803H82.6884H82.6965H82.7045H82.7124H82.7203H82.728H82.7357H82.7434H82.7509H82.7584H82.7658H82.7731H82.7804H82.7876H82.7947H82.8017H82.8086H82.8155H82.8223H82.829H82.8356H82.8422H82.8487H82.8551H82.8614H82.8676H82.8738H82.8799H82.8859H82.8918H82.8977H82.9035H82.9092H82.9148H82.9203H82.9258H82.9311H82.9364H82.9416H82.9468H82.9518H82.9568H82.9617H82.9665H82.9712H82.9758H82.9804H82.9849H82.9893H82.9936H82.9978H83.002H83.006H83.01H83.0139H83.0177H83.0214H83.0251H83.0287H83.0321H83.0355H83.0388H83.0421H83.0452H83.0482H83.0512H83.0541H83.0569H83.0596H83.0622H83.0648H83.0672H83.0696H83.0718H83.074H83.0761H83.0782H83.0801H83.0819H83.0837H83.0853H83.0869H83.0884H83.0898H83.0911H83.0923H83.0935H83.0945H83.0954H83.0963H83.0971H83.0978H83.0984H83.0988H83.0993H83.0996H83.0998H83.1C83.4426 4.70847 83.7324 4.61987 83.9805 4.44621C84.2145 4.28236 84.3812 4.06302 84.516 3.86082C84.5895 3.75057 84.6572 3.64126 84.7248 3.53202C84.9208 3.21528 85.1165 2.89909 85.4535 2.56202L85.5109 2.50465L85.5472 2.43208C85.7219 2.0826 86.1611 1.70754 86.8508 1.39935C87.5252 1.09803 88.3727 0.891396 89.2582 0.832362C91.0613 0.712161 92.8309 1.20628 93.684 2.48582L93.7114 2.52701L93.7464 2.56202C94.3491 3.16468 95.2175 3.69633 97.4166 3.95504C99.5903 4.21078 103.125 4.20735 109.117 3.70882L167.891 4.7084Z" fill="#660099" stroke="black"/>
</svg>
