<?xml version="1.0" encoding="utf-8"?>
<svg xmlns="http://www.w3.org/2000/svg" id="Layer_1" data-name="Layer 1" viewBox="0 0 800 518" fill="#fff"><title>Frame</title><path d="M580.7,518c-18.9,0-35.68-.48-51.29-1.47-9.78-.61-19.84-1.08-29.56-1.53-18.79-.86-36.51-1.68-52.08-3.5-6.6-.77-13.1-1.92-19.39-3-8.69-1.55-17.68-3.15-26.53-3.62-6.66-.36-13.38-.41-19.88-.45h-.1a294.1,294.1,0,0,1-29.78-1.24c-33.35-3.65-63.47-6.66-94.42-6.66-11.19,0-22.43-.14-34.32-.28-43.86-.53-89.16-1.07-132.15,5.25-2.45.36-5,.85-7.46,1.32A91,91,0,0,1,68,504.89h-.47c-15,0-39.86-7.05-47.43-20.29-2.12-3.71-2.23-13.16-2.15-25.13v-1.69c.14-28.88-.05-61.44-2.5-84-3.65-33.63-6.16-68-8.58-101.27l-.67-9.16C4.27,237,4.14,210.07,4,184c0-12.33-.11-24-.35-35.34C3.3,131.26,2.79,113.23,2,90.2c-.25-7.15-.26-14.35-.27-21.32,0-12.71,0-24.71-1.39-36C-.34,27.25-.81,10,5.64,3.93,11.34-1.42,24.88-.33,43.4,1.78c5,.57,9.29,1.07,12,1.1,8.91.11,17.47-.21,25.75-.52,9.21-.33,17.9-.65,25.59-.31a791.37,791.37,0,0,0,91.08-.84C219.29-.08,240,1.14,259.94,2.32c13.54.8,26.32,1.55,38,1.39,14.09-.2,27.85.18,41.17.55h.15c16.83.47,32.74.91,49.25.29,9.32-.34,18.9.64,29,1.68,6.56.67,13.32,1.36,20,1.66l19.41.91.49,0c28.2,1.32,54.83,2.58,84.94,3.25,15.74.35,32.07.9,47.86,1.42h.31c31.88,1.06,64.85,2.16,97.79,1.91,6,0,12.05-.15,17.93-.25h.14c27.28-.46,53-.9,77.56,3.66l1.55.3.89,1.24a37.2,37.2,0,0,0,5,5.53c2.08,2,4.24,4.07,5.43,6.82,2,4.58,1.52,10.3.93,17.55-.29,3.7-.62,7.84-.65,12.26-.14,25.28.39,64.34,1.68,90.07,1.17,23.48.5,51.06-.14,77.74-.35,14.41-.68,28-.7,40.27-.08,42.69,0,78.13.84,122.78.09,4.86.29,9.81.51,15.05.49,11.77,1,25,.33,40.34-1,20.72-2.3,49.11-15.93,58-14.55,9.46-59.71,10.22-85.34,9.82-22.27-.34-44.54.18-66.07.67h-.18C615.42,517.64,598.18,518,580.7,518ZM186.33,492c12.4,0,24.77.15,37,.3,11.93.14,23.15.28,34.32.28,31.15,0,61.39,3,94.86,6.68a290.63,290.63,0,0,0,29.37,1.22h.1c6.55.05,13.31.1,20.06.46,9.09.48,18.21,2.1,27,3.67,6.23,1.11,12.67,2.25,19.15,3,15.43,1.8,33.08,2.61,51.77,3.48,9.77.45,19.84.91,29.67,1.53,15.52,1,32.21,1.46,51,1.46,17.43,0,34.65-.4,51.3-.78h.18c21.58-.49,43.88-1,66.23-.67,42.84.66,73.12-2.68,83.1-9.18,11.93-7.77,13.2-35,14.13-54.85.71-15.13.16-28.3-.32-39.92-.22-5.33-.43-10.31-.52-15.2-.81-44.69-.92-80.15-.84-122.87,0-12.33.35-25.92.7-40.31.64-26.65,1.31-54.16.14-77.5C793.51,127,793,87.84,793.12,62.5c0-4.57.36-8.79.66-12.52.55-6.74,1-12-.62-15.7-.87-2-2.56-3.64-4.53-5.53a42,42,0,0,1-5.46-6c-24.12-4.49-49.67-4-76.71-3.59h-.15c-5.89.1-12,.21-18,.25-33,.25-66-.85-98-1.91h-.31C574.3,16.93,558,16.39,542.26,16c-30.15-.68-56.81-1.93-85-3.26l-.49,0-19.4-.9c-6.78-.31-13.59-1-20.18-1.68-10-1-19.49-2-28.52-1.66C372,9.13,356,8.7,339.12,8.23H339c-13.28-.37-27-.75-41-.55-11.81.16-24.65-.6-38.26-1.4C239.84,5.11,219.3,3.9,198.06,5.17a794.11,794.11,0,0,1-91.5.84C99,5.68,90.42,6,81.31,6.33c-8.34.31-17,.62-26,.52C52.44,6.81,48,6.31,43,5.73,26.65,3.86,12.8,2.66,8.36,6.82S3.46,25.55,4.28,32.35c1.4,11.58,1.41,23.7,1.42,36.53,0,6.93,0,14.1.26,21.18.81,23,1.32,41.1,1.68,58.51C7.88,160,7.94,171.63,8,184c.13,26,.26,52.93,2.17,79.09l.67,9.16c2.42,33.22,4.92,67.57,8.57,101.14,2.47,22.77,2.66,55.47,2.52,84.46v1.7c-.05,8-.13,20.05,1.63,23.14,6.73,11.77,30.27,18.28,44,18.28h.43a87.23,87.23,0,0,0,15-2c2.5-.48,5.09-1,7.63-1.35C121.85,493,154.21,492,186.33,492Z"/></svg>
