<?xml version="1.0" encoding="utf-8"?>
<svg id="Layer_1" data-name="Layer 1" xmlns="http://www.w3.org/2000/svg" viewBox="0 0 862 608"><defs><style>.cls-1{fill-rule:evenodd;}</style></defs><title>Frame</title><path class="cls-1" d="M847.87,22.31c4.17,6.46,9.13,9.27,11,13.93,2.78,7,.08,18.72,0,33.83-.15,30.6.44,76.91,1.83,107.45,2,42.83-.84,98.46-.91,140.27-.09,48.76,0,92,.91,146.25.31,19.07,2,39.66.91,65.66-1.05,24.78-2.55,56.42-15.52,65.67-15.17,10.8-65.37,11.36-90.41,10.94-61.53-1-120.13,4.39-183.57,0-30.62-2.12-62.81-2.68-88.59-6-17-2.17-33.39-7-50.23-8-18.26-1.06-36,.15-53.88-2-34.67-4.14-68.32-8-103.2-8-57.44,0-122-3.64-181.74,6-8.22,1.33-16.75,3.9-24.66,4-15.13.16-41.1-7.91-48.41-21.89-2.12-4.08-1.87-20.38-1.82-29.85.12-27.91.13-71.52-2.74-100.48-4.34-43.68-7.21-88.76-10-131.33C3.69,263.14,4.82,215.28,4,172.54c-.46-23.89-1.11-47.06-1.83-69.64C1.43,79.36,2.71,55.65.35,34.26c-1-9.37-.3-25.85,4.57-30.85,7.29-7.49,39.82-.14,51.15,0,20.76.27,40.2-1.74,55.71-1a785.45,785.45,0,0,0,99.54-1c39.2-2.58,77.48,3.46,108.69,3,34-.52,65.78,2.33,98.63,1,16.43-.67,34.64,3.06,53,4,38.05,1.89,73.58,4,114.16,5,51.2,1.26,104.82,4.43,158.91,4C780.21,18,815.66,15.75,847.87,22.31Z"/></svg>