<svg id="Layer_1" data-name="Layer 1" xmlns="http://www.w3.org/2000/svg" viewBox="0 0 248 67"><defs><style>.cls-1{fill:#03dac6;fill-rule:evenodd;}.cls-2{font-size:30px;fill:#fff;font-family:Shnobel-Oblique, Shnobel;}.cls-3{fill:#005457;}</style></defs><title>Button set_Hover</title><path class="cls-1" d="M236.08,2.2c1.16.63,2.54.91,3,1.37.78.7,0,1.85,0,3.34a87.39,87.39,0,0,0,.51,10.6c.55,4.23-.23,9.72-.25,13.85,0,4.81,0,9.08.25,14.43a32.69,32.69,0,0,1,.26,6.48c-.3,2.44-.71,5.57-4.33,6.48-4.22,1.07-18.2,1.12-25.17,1.08-17.13-.1-33.44.43-51.11,0-8.52-.21-17.49-.27-24.66-.59-4.74-.21-9.3-.69-14-.79-5.08-.1-10,0-15-.19-9.65-.41-19-.79-28.73-.79-16,0-34-.36-50.6.59-2.29.13-4.67.39-6.87.39C15.23,58.47,8,57.67,6,56.29c-.59-.4-.52-2-.51-2.94,0-2.76,0-7.06-.76-9.92-1.21-4.31-2-8.76-2.8-13C1,26,1.36,21.24,1.13,17,1,14.66.82,12.38.62,10.15S.77,5.49.11,3.38a2.49,2.49,0,0,1,1.27-3c2-.74,11.09,0,14.25,0,5.78,0,11.19-.17,15.51-.1C42.33.43,49.57.35,58.85.14,69.77-.12,80.42.48,89.11.43c9.48,0,18.32.23,27.46.1,4.58-.07,9.65.3,14.75.39,10.6.19,20.49.39,31.79.49,14.25.13,29.18.44,44.24.39C217.24,1.78,227.11,1.55,236.08,2.2Z"/><text class="cls-2" transform="translate(69.18 42.52)">Більше тут</text><path class="cls-3" d="M182.29,67c-5,0-10.15,0-15.35-.17-2.94-.07-5.95-.12-8.91-.17-5.61-.1-10.92-.19-15.57-.4-2-.08-3.89-.21-5.77-.34-2.64-.18-5.37-.36-8.07-.42-2,0-4,0-6,0-2.9,0-5.9,0-8.86-.14-10-.41-19.12-.76-28.46-.76l-10.32,0c-13.19-.06-26.83-.12-39.8.6l-2.28.15c-1.52.11-3.09.23-4.58.23h-.12c-3.69,0-11.38-.65-13.81-2.25-1-.66-1-2.22-.94-3.48v-.19c0-1.95.09-6.52-.72-9.32-1.1-3.86-1.86-7.79-2.59-11.6l-.2-1a51.88,51.88,0,0,1-.67-9.17c0-1.39,0-2.7-.1-4-.11-2-.27-4-.51-6.62-.07-.84-.08-1.68-.08-2.49a12.64,12.64,0,0,0-.38-3.86A3.31,3.31,0,0,1,10,7.38c1.51-.54,5.6-.41,10.78-.19,1.52.07,2.83.13,3.69.13,2.7,0,5.28,0,7.79-.06,2.74,0,5.33-.07,7.6,0,11.26.19,18.59.11,27.45-.09,6.4-.15,12.58,0,18.56.13,4.08.09,7.94.17,11.46.15,4.23,0,8.38,0,12.38.07,5.07,0,9.86.1,14.85,0,2.74,0,5.59.07,8.61.19,2,.08,4,.15,6.05.19l6,.1c8.47.16,16.47.3,25.52.37,4.73,0,9.53.11,14.39.17,9.61.12,19.55.25,29.48.21l5.44,0c8.15-.06,15.84-.11,23.12.41h.22l.19.1a10,10,0,0,0,1.51.63,5.61,5.61,0,0,1,1.7.83,2.56,2.56,0,0,1,.51,2.73,7.12,7.12,0,0,0-.18,1.24,82.14,82.14,0,0,0,.5,10.12,48.41,48.41,0,0,1,0,9c-.1,1.62-.2,3.15-.21,4.53,0,4.84,0,8.86.25,13.91,0,.54.09,1.1.15,1.67a19,19,0,0,1,.1,4.77c-.28,2.25-.74,6-5,7.09s-17.61,1.12-25.21,1.07c-6.73,0-13.44,0-19.94.08C192.66,67,187.52,67,182.29,67ZM63.84,62.55c3.73,0,7.44,0,11.11,0l10.31,0c9.38,0,18.48.34,28.54.76,2.92.12,5.9.13,8.79.14,2,0,4,0,6.07,0,2.75,0,5.51.24,8.17.42,1.86.12,3.8.25,5.72.34,4.62.2,9.92.3,15.52.39,3,.06,6,.11,8.92.18,10.56.25,20.8.16,30.7.07,6.51,0,13.23-.11,20-.07,12.78.07,21.79-.3,24.72-1,2.74-.67,3.21-2.77,3.54-5.45a17.49,17.49,0,0,0-.1-4.32c-.06-.62-.13-1.21-.16-1.79-.24-5.09-.27-9.13-.25-14,0-1.43.11-3,.21-4.64a47.09,47.09,0,0,0,0-8.63,84.9,84.9,0,0,1-.51-10.4,7.93,7.93,0,0,1,.22-1.61,3,3,0,0,0,.11-.88,5.24,5.24,0,0,0-1.07-.46,15.15,15.15,0,0,1-1.58-.65c-7.14-.49-14.73-.44-22.76-.39-1.81,0-3.63,0-5.45,0-9.94,0-19.89-.1-29.5-.22q-7.29-.09-14.39-.16c-9.06-.08-17.06-.22-25.54-.37l-6-.1c-2.05,0-4.1-.12-6.09-.2-3-.11-5.82-.22-8.5-.18-5,.06-9.81,0-14.9,0-4,0-8.13-.08-12.34-.06-3.56,0-7.43-.07-11.53-.16-5.95-.13-12.11-.27-18.47-.13-8.88.21-16.23.29-27.52.1-2.24,0-4.82,0-7.55,0-2.51,0-5.1.07-7.82.06-.9,0-2.23-.07-3.77-.13C17.45,9,12,8.75,10.71,9.2c-.76.27-.8,1.29-.66,1.75a14.49,14.49,0,0,1,.48,4.43c0,.76,0,1.56.07,2.32.24,2.64.4,4.7.51,6.69.07,1.32.09,2.65.1,4.06a50.33,50.33,0,0,0,.64,8.83l.2,1c.72,3.76,1.47,7.65,2.55,11.43.78,2.7.84,6.51.8,9.87v.19a7.26,7.26,0,0,0,.14,1.89c1.75,1.06,8.33,1.87,12.74,1.88,1.42,0,3-.12,4.45-.23.77-.05,1.54-.11,2.31-.15C44.44,62.67,54.18,62.55,63.84,62.55Z"/></svg>