<svg width="240" height="60" viewBox="0 0 240 60" fill="none" xmlns="http://www.w3.org/2000/svg">
<path fill-rule="evenodd" clip-rule="evenodd" d="M3.94107 57.8066C2.80118 57.1632 1.39825 56.8923 0.872147 56.4182C0.0829926 55.7072 0.872147 54.5559 0.872147 53.066C0.872147 50.0524 0.784485 45.4811 0.346069 42.4675C-0.180038 38.2348 0.609116 32.7493 0.609116 28.6183C0.609116 23.81 0.609116 19.5435 0.346069 14.1934C0.258392 12.2972 -0.180054 10.2655 0.0830078 7.72597C0.346054 5.28797 0.78447 2.17274 4.37949 1.25849C8.58829 0.208797 22.6177 0.141075 29.5446 0.174938C46.6429 0.27652 62.952 -0.265255 80.6641 0.174938C89.1694 0.378105 98.1131 0.445827 105.303 0.750576C110.038 0.953743 114.598 1.4278 119.245 1.52938C124.33 1.63097 129.241 1.52938 134.239 1.73255C143.884 2.13888 153.266 2.51135 162.999 2.51135C178.957 2.51135 196.932 2.88383 213.592 1.93571C215.872 1.80027 218.239 1.56324 220.431 1.52938C224.64 1.52938 231.83 2.30819 233.935 3.69649C234.549 4.10283 234.461 5.6943 234.461 6.64241C234.461 9.38516 234.461 13.6855 235.25 16.5637C236.478 20.8979 237.267 25.3337 238.056 29.5325C238.933 34.0361 238.582 38.7766 238.845 42.9754C238.933 45.3457 239.196 47.6144 239.371 49.8492C239.546 52.1856 239.196 54.522 239.897 56.6214C240.16 57.5695 239.985 59.1949 238.582 59.6689C236.565 60.4139 227.534 59.6689 224.377 59.6689C218.59 59.6351 213.154 59.8382 208.857 59.7705C197.634 59.5673 190.444 59.6689 181.149 59.8721C170.277 60.143 159.579 59.5335 150.899 59.5673C141.429 59.6351 132.573 59.3303 123.454 59.4657C118.894 59.5335 113.808 59.161 108.723 59.0594C98.1131 58.8562 88.2049 58.6531 76.9814 58.5515C62.689 58.4161 47.7828 58.1113 32.7013 58.1452C22.793 58.2467 12.8848 58.4499 3.94107 57.8066Z" fill="#660099"/>
</svg>
