<svg width="60" height="60" viewBox="0 0 60 60" fill="none" xmlns="http://www.w3.org/2000/svg">
<path d="M0.671928 21.3561L40.3987 59.1217C40.1755 59.1217 39.9524 59.0668 39.7292 59.0668L0.616129 21.905C0.671925 21.7404 0.671928 21.5208 0.671928 21.3561ZM2.62479 7.90763L53.5108 57.5847C53.6224 57.4749 53.734 57.42 53.7898 57.3102L2.79217 7.46849C2.73638 7.63317 2.68059 7.79784 2.62479 7.90763ZM0.83931 18.2822L43.0211 59.3961C43.2443 59.3961 43.4675 59.451 43.6907 59.451L0.895109 17.7881C0.839313 17.8979 0.83931 18.1175 0.83931 18.2822ZM0.560329 24.3203L36.3256 58.8472C36.5488 58.8472 36.772 58.8472 36.9394 58.9021L0.560329 23.7714C0.616125 23.936 0.560329 24.1556 0.560329 24.3203ZM3.35013 6.15109C3.51752 6.31576 3.68491 6.48044 3.90809 6.64511C5.41459 8.0723 7.53484 10.1582 10.1015 12.5734C15.2347 17.4588 22.0418 24.0458 28.8489 30.5779C40.1755 41.4465 51.4463 52.2602 55.0173 55.6086C55.0731 55.4988 55.1289 55.3341 55.2405 55.2243C48.0986 48.4178 11.8869 13.7262 3.62911 5.71195C3.51752 5.87663 3.40593 6.04131 3.35013 6.15109ZM0.50453 26.8453C0.50453 27.01 0.50453 27.2295 0.50453 27.3942C6.80948 33.1578 23.4367 48.6373 34.2611 58.8472C34.4843 58.8472 34.6517 58.8472 34.8749 58.8472C31.5829 55.7733 24.5526 49.1863 17.5781 42.709C7.81382 33.5421 2.95956 29.041 0.50453 26.8453ZM1.11829 15.0985C1.11829 15.2631 1.06249 15.4278 1.06249 15.5925L47.0942 59.5608C47.2616 59.5608 47.429 59.5608 47.5964 59.5608C47.5964 59.5059 47.5964 59.451 47.5406 59.3961L1.11829 15.0985ZM1.62045 11.6952C1.56466 11.8598 1.56467 12.0245 1.50887 12.1892C11.4406 22.0148 47.8754 57.42 49.6609 59.1766C49.7167 59.2314 49.7724 59.2314 49.8282 59.2314C49.884 59.2314 49.9398 59.2314 49.9956 59.1766C50.0514 59.1217 50.0514 58.957 49.9956 58.9021C35.3213 44.5753 9.3761 19.3251 1.62045 11.6952ZM2.17841 9.27992C2.12262 9.4446 2.12263 9.60927 2.06683 9.71906L51.8927 58.5727C51.9485 58.6276 52.0043 58.6276 52.0601 58.6276C52.1159 58.6276 52.1717 58.6276 52.2275 58.5727C52.2833 58.5179 52.2833 58.3532 52.2275 58.2983L2.17841 9.27992ZM1.78785 47.8688L12.2775 58.3532C12.5565 58.4081 12.7797 58.463 13.0586 58.5727L1.62045 47.1004C1.67625 47.3748 1.73205 47.5944 1.78785 47.8688ZM8.81814 56.926L3.46173 51.8759C5.13561 54.2363 6.86528 55.8282 8.81814 56.926ZM0.560329 35.134C0.560329 35.3535 0.560329 35.5182 0.560329 35.7378C6.02834 41.2818 18.3593 53.7423 23.6599 59.0668C23.8273 59.0668 24.0505 59.0668 24.2179 59.0668C23.6599 58.463 22.9345 57.7494 21.986 56.8162L0.560329 35.134ZM1.39727 45.6183L15.6811 58.957C15.9042 58.957 16.1274 59.0119 16.3506 59.0119L1.28567 44.9596C1.28567 45.1791 1.34147 45.3987 1.39727 45.6183ZM0.50453 30.2486L30.5786 58.8472C30.8018 58.8472 30.9692 58.8472 31.1924 58.8472L0.50453 29.6997C0.50453 29.8643 0.50453 30.029 0.50453 30.2486ZM0.950909 42.0503C0.950909 42.2699 1.00669 42.4895 1.00669 42.709C4.01968 45.783 9.71089 51.2721 17.9129 59.1766C18.1361 59.1766 18.3035 59.1766 18.5267 59.1766C12.2775 53.1385 4.63345 45.7281 0.950909 42.0503ZM0.50453 33.0481L27.6214 58.9021C27.7888 58.9021 28.012 58.9021 28.1794 58.9021L0.44873 32.4991C0.504527 32.6638 0.50453 32.8834 0.50453 33.0481ZM0.727711 38.7568C0.727711 38.9764 0.727714 39.1411 0.78351 39.3606C6.97687 45.234 16.9086 54.7303 21.3723 59.1217C21.5396 59.1217 21.7628 59.1217 21.9302 59.1217C17.5223 54.7303 7.20005 44.9596 0.727711 38.7568ZM22.1534 0.387451C27.0635 5.49239 50.8326 30.4133 58.644 38.647C58.644 38.4823 58.6998 38.3177 58.6998 38.0981C50.721 29.7546 28.1794 6.0962 22.7114 0.387451C22.544 0.387451 22.3208 0.387451 22.1534 0.387451ZM58.9788 14.7142L49.8282 4.17498C49.6051 4.12009 49.3261 4.01031 49.1029 3.95542L59.1462 15.5376C59.0904 15.2631 59.0346 14.9887 58.9788 14.7142ZM57.9745 10.9816C56.189 9.06035 54.2361 6.97447 52.5065 5.10815C52.2275 4.99836 51.8927 4.88858 51.5579 4.7239C53.6224 6.91957 56.0216 9.49949 58.2534 11.9147C58.1977 11.6403 58.0861 11.3109 57.9745 10.9816ZM30.2438 0.716802L59.3136 32.3894C59.3136 32.2247 59.3694 32.0051 59.3694 31.8404L30.8576 0.771694C30.6344 0.771694 30.467 0.716802 30.2438 0.716802ZM33.5916 1.04615L59.481 29.5899C59.481 29.3703 59.481 29.2056 59.5368 28.9861L34.2053 1.10104C34.038 1.10104 33.8148 1.04615 33.5916 1.04615ZM37.3857 1.54018L59.7042 26.5159C59.7042 26.2964 59.7042 26.1317 59.7042 25.9121L37.9995 1.59507C37.7763 1.59507 37.5531 1.54018 37.3857 1.54018ZM59.3694 17.2392L46.5363 3.24182C46.3131 3.18693 46.0341 3.13204 45.8109 3.07715L59.4252 17.9528C59.4252 17.6784 59.3694 17.4588 59.3694 17.2392ZM59.7042 23.0578C49.4377 11.5305 43.9697 5.3826 41.0125 2.0891C40.7893 2.03421 40.5661 2.0342 40.3429 1.97931C45.3088 7.52338 55.2405 18.6664 59.7042 23.7165C59.7042 23.4969 59.7042 23.2773 59.7042 23.0578ZM59.6483 20.5327L43.6349 2.58312C43.4117 2.52823 43.1885 2.47334 42.9653 2.41845L59.6483 21.1365C59.6483 20.9719 59.6483 20.7523 59.6483 20.5327ZM6.13994 3.13204C12.6681 9.49949 47.7638 43.6422 56.3564 51.9857C56.4122 51.8211 56.4122 51.6564 56.468 51.4917C47.6522 42.9286 13.2818 9.4446 6.53051 2.91247C6.41892 2.96737 6.30732 3.02226 6.13994 3.13204ZM13.4492 0.936369L57.6397 45.4536C57.6955 45.2889 57.6955 45.1243 57.7513 44.9596L14.0072 0.881477C13.8398 0.881477 13.6166 0.936369 13.4492 0.936369ZM10.9384 1.4304L57.3049 47.3748C57.3607 47.2101 57.3607 47.0455 57.4165 46.8808L11.4406 1.32061C11.2174 1.32061 11.1058 1.3755 10.9384 1.4304ZM4.52185 4.39455C7.98121 7.74295 19.1962 18.6115 55.7426 53.9069C55.7984 53.7423 55.8542 53.6325 55.91 53.4678C47.708 45.5634 12.3891 11.4756 4.80083 4.0652C4.68924 4.22988 4.57765 4.33966 4.52185 4.39455ZM27.3982 0.552127L59.1462 34.3106C59.1462 34.1459 59.202 33.9263 59.202 33.7617L28.012 0.552127C27.7888 0.552127 27.5656 0.552127 27.3982 0.552127ZM8.42758 2.0891C14.8441 8.29187 47.987 40.678 56.9143 49.3509C56.9701 49.1862 56.9701 49.0216 57.0259 48.8569C47.8196 39.8546 15.6253 8.45654 8.87394 1.92442C8.76235 1.97931 8.59496 2.03421 8.42758 2.0891ZM25.1106 0.442343L58.8672 36.616C58.8672 36.4514 58.923 36.2318 58.923 36.0671L25.7244 0.442343C25.5012 0.442343 25.3338 0.442343 25.1106 0.442343ZM16.797 0.552127L57.9745 43.3677C57.9745 43.203 58.0303 43.0384 58.0303 42.8737L17.2991 0.552127C17.1876 0.552127 16.9644 0.552127 16.797 0.552127ZM19.531 0.442343L58.2534 41.2269C58.2534 41.0623 58.3092 40.8976 58.3092 40.678L20.1447 0.387451C19.9216 0.442343 19.7542 0.442343 19.531 0.442343Z" fill="black"/>
<path opacity="0.3" d="M37.9443 13.781L38.5023 12.1892L59.2026 33.9263C59.2026 33.9263 57.6961 49.4058 56.4686 52.0955C55.2969 54.7852 53.902 58.1336 51.2238 59.0119C48.6013 59.8901 43.0218 59.3412 43.0218 59.3412L30.0771 58.6276L23.1026 51.9308C23.1026 51.9308 23.3815 51.2172 23.3815 50.5585C23.3815 49.9547 23.1584 39.6351 23.1584 39.6351C23.1584 39.6351 16.8534 33.9812 17.0766 33.9812C17.2998 33.9812 17.0766 26.6257 17.0766 26.6257L23.2142 26.5708C23.2142 26.5708 22.6004 18.3371 25.3344 14.9887C28.0684 11.6403 31.193 11.5305 33.5364 11.75C35.8799 11.9696 37.8327 12.2441 37.8327 12.2441L37.9443 13.781Z" fill="black"/>
<path d="M37.4974 18.7213L38.0553 12.3539C38.0553 12.3539 34.7634 11.6403 31.6388 11.8049C28.5142 11.9696 24.6085 14.7142 23.6042 18.2822C23.3252 19.3251 23.1578 22.6186 23.1578 26.7355H17.1318V33.6519L23.102 33.8166C23.1578 42.5992 23.381 51.7113 23.381 51.7113H30.5229C30.5229 51.7113 30.5787 42.3248 30.5787 34.0361L37.2742 34.2008V26.6806H30.5229C30.5229 24.485 30.4671 22.8382 30.4671 22.0697C30.4113 18.3371 37.4974 18.7213 37.4974 18.7213Z" fill="white"/>
<path d="M47.0387 60C45.4764 60 43.691 59.8353 41.7939 59.6707C39.1157 59.4511 36.0469 59.1766 32.5318 59.2315C30.0767 59.2315 27.7891 59.3413 25.6131 59.4511C15.4024 59.8353 8.65106 60.1098 2.84828 51.9309C-0.555284 47.1553 -0.108923 28.1628 0.225854 20.2035C0.225854 19.9839 0.225854 19.8741 0.225854 19.8741C0.225854 19.435 0.560627 8.78596 3.7968 4.5593C10.046 -3.61958 46.146 0.716871 54.5712 5.82181C64.6145 11.9148 57.8074 46.7711 56.9704 50.7233C55.5197 58.4081 52.2278 60 47.0387 60ZM33.1455 58.4081C36.4375 58.4081 39.2831 58.6277 41.8497 58.8473C50.1633 59.5609 54.2922 59.8902 56.2451 50.5037C59.1465 36.3965 61.9921 11.2012 54.1806 6.48051C46.0902 1.59514 10.3807 -2.68642 4.52216 4.99843C1.39758 9.06042 1.11859 19.7643 1.11859 19.8741C1.11859 19.929 1.11859 20.0388 1.11859 20.2583C0.839614 26.4062 0.225854 46.826 3.57362 51.4918C9.09743 59.2864 15.3466 59.0668 25.6131 58.6277C27.7891 58.5179 30.0209 58.463 32.5318 58.4081C32.7549 58.4081 32.9781 58.4081 33.1455 58.4081Z" fill="black"/>
<path d="M30.5791 52.0957H23.4372C23.214 52.0957 23.0467 51.931 22.9909 51.7114C22.9909 51.6017 22.7677 42.7641 22.7119 34.201L17.1323 34.0363C16.9091 34.0363 16.7417 33.8716 16.7417 33.652V26.6808C16.7417 26.4612 16.9091 26.2417 17.1881 26.2417H22.7677C22.8235 21.7405 22.9909 19.0508 23.2698 18.1177C24.33 14.2752 28.4589 11.5307 31.695 11.366C34.8754 11.2013 38.0558 11.9149 38.2232 11.9149C38.4464 11.9698 38.558 12.1345 38.558 12.354L38 18.7215C38 18.941 37.7768 19.1057 37.5536 19.1057C37.4978 19.1057 33.3131 18.8862 31.695 20.478C31.2487 20.9172 31.0255 21.4112 31.0813 22.0699C31.1371 22.7286 31.1371 24.1558 31.1371 26.2965H37.442C37.6652 26.2965 37.8884 26.4612 37.8884 26.7357V34.201C37.8884 34.3107 37.8326 34.4205 37.7768 34.4754C37.721 34.5303 37.6094 34.5852 37.4978 34.5852L31.0255 34.4205C31.0255 42.4896 30.9697 51.6017 30.9697 51.6566C30.9697 51.931 30.8023 52.0957 30.5791 52.0957ZM23.8278 51.2723H30.1327C30.1327 49.3511 30.1885 41.2271 30.1885 33.9814C30.1885 33.8716 30.2443 33.7618 30.3001 33.7069C30.3559 33.652 30.4675 33.5972 30.5791 33.5972L36.8841 33.7618V27.1199H30.5791C30.3559 27.1199 30.1885 26.9552 30.1327 26.7357C30.1327 24.4302 30.0769 22.8384 30.0769 22.1797C30.0212 21.3014 30.3559 20.5878 30.9139 19.984C32.4762 18.447 35.8239 18.3372 36.9957 18.3921L37.4978 12.7932C36.5493 12.6285 33.9827 12.1894 31.5276 12.2991C28.6821 12.4089 24.8321 14.9888 23.8836 18.447C23.7162 19.0508 23.493 21.0269 23.4372 26.7906C23.4372 27.0101 23.2698 27.1748 22.9909 27.1748H17.4113V33.2678L22.9909 33.4325C23.214 33.4325 23.3814 33.5972 23.3814 33.8167C23.6046 41.3918 23.772 49.406 23.8278 51.2723Z" fill="black"/>
</svg>
