<svg width="60" height="60" viewBox="0 0 60 60" fill="none" xmlns="http://www.w3.org/2000/svg">
<path d="M0.618067 21.3914L40.3436 59.1224C40.1205 59.1224 39.8973 59.0676 39.6741 59.0676L0.562272 21.9398C0.618067 21.7753 0.618067 21.5559 0.618067 21.3914ZM2.57087 7.9552L53.4553 57.5869C53.5669 57.4772 53.6785 57.4223 53.7343 57.3126L2.73825 7.5713C2.68246 7.68099 2.62666 7.84551 2.57087 7.9552ZM0.729655 18.3203L42.966 59.3418C43.1891 59.3418 43.4123 59.3966 43.6355 59.3966L0.78545 17.7718C0.78545 17.9364 0.78545 18.1557 0.729655 18.3203ZM0.506478 24.3528L36.2706 58.9031C36.4938 58.9031 36.717 58.9031 36.8844 58.9579L0.506478 23.8593C0.506478 24.0238 0.506478 24.1883 0.506478 24.3528ZM3.29619 6.20026C3.46358 6.36479 3.63096 6.52931 3.85414 6.69384C5.36059 8.11972 7.48077 10.2037 10.0473 12.6167C15.1804 17.4976 21.9873 24.0786 28.7942 30.6048C40.0647 41.4634 51.3351 52.2672 54.906 55.6674C54.9617 55.5577 55.0175 55.3932 55.1291 55.2835C47.9875 48.4831 11.7769 13.8232 3.51937 5.81637C3.40778 5.92606 3.35199 6.09058 3.29619 6.20026ZM0.450684 26.8756C0.450684 27.0401 0.450684 27.2594 0.450684 27.424C6.75544 33.1823 23.3822 48.6477 34.2063 58.8482C34.4294 58.8482 34.5968 58.8482 34.82 58.8482C31.5281 55.7771 24.498 49.1961 17.5238 42.7248C7.75974 33.5662 2.90563 29.0692 0.450684 26.8756ZM1.06442 15.1394C1.06442 15.304 1.00863 15.4685 1.00863 15.633L47.039 59.5612C47.2063 59.5612 47.3737 59.5612 47.5411 59.5612C47.5411 59.5063 47.5411 59.4515 47.4853 59.3966L1.06442 15.1394ZM1.56657 11.7393C1.51078 11.9038 1.51078 12.0683 1.45498 12.2328C11.3864 22.0495 47.8201 57.4223 49.6055 59.1773C49.6613 59.2321 49.7171 59.2321 49.7729 59.2321C49.8287 59.2321 49.8845 59.2321 49.9403 59.1773C49.9961 59.1224 49.9961 58.9579 49.9403 58.9031C35.2663 44.6442 9.32198 19.4171 1.56657 11.7393ZM2.12451 9.38108C2.06872 9.5456 2.06872 9.71013 2.01292 9.81981L51.7815 58.574C51.8373 58.6288 51.8931 58.6288 51.9489 58.6288C52.0046 58.6288 52.0604 58.6288 52.1162 58.574C52.172 58.5192 52.172 58.3546 52.1162 58.2998L2.12451 9.38108ZM1.73395 47.8799L12.2233 58.3546C12.5023 58.4095 12.7254 58.4643 13.0044 58.574L1.56657 47.1121C1.62236 47.3863 1.67816 47.6057 1.73395 47.8799ZM8.76404 56.9288L3.35199 51.9382C5.02582 54.2415 6.81124 55.8868 8.76404 56.9288ZM0.506478 35.1566C0.506478 35.376 0.506478 35.5405 0.506478 35.7599C5.97432 41.2989 18.3049 53.7479 23.6053 59.0676C23.7727 59.0676 23.9959 59.0676 24.1633 59.0676C23.6053 58.4643 22.88 57.7514 21.9315 56.8191L0.506478 35.1566ZM1.2876 45.6314L15.5709 58.9579C15.7941 58.9579 16.0173 59.0127 16.2405 59.0127L1.2318 44.9733C1.2318 45.1926 1.2876 45.412 1.2876 45.6314ZM0.450684 30.2757L30.5238 58.8482C30.747 58.8482 30.9144 58.8482 31.1376 58.8482L0.450684 29.7273C0.450684 29.8918 0.450684 30.0564 0.450684 30.2757ZM0.897038 42.0667C0.897038 42.286 0.952833 42.5054 0.952833 42.7248C3.96573 45.7959 9.65675 51.2801 17.8585 59.1773C18.0817 59.1773 18.2491 59.1773 18.4723 59.1773C12.1675 53.1447 4.57946 45.7959 0.897038 42.0667ZM0.450684 33.0727L27.5667 58.9031C27.7341 58.9031 27.9573 58.9031 28.1247 58.9031L0.450684 32.5242C0.450684 32.6888 0.450684 32.9081 0.450684 33.0727ZM0.618067 38.7762C0.618067 38.9955 0.618067 39.1601 0.673861 39.3794C6.86703 45.2475 16.7984 54.7351 21.262 59.1224C21.4294 59.1224 21.6525 59.1224 21.8199 59.1224C17.4122 54.7351 7.146 44.9733 0.618067 38.7762ZM22.0431 0.441895C26.953 5.54216 50.7214 30.4403 58.5326 38.6665C58.5326 38.502 58.5884 38.3374 58.5884 38.1181C50.6656 29.7822 28.1247 6.14542 22.6568 0.441895C22.4337 0.441895 22.2663 0.441895 22.0431 0.441895ZM58.9231 14.7556L49.7171 4.22597C49.4939 4.17112 49.2149 4.06144 48.9918 4.0066L59.0347 15.5782C58.9789 15.304 58.9789 15.0298 58.9231 14.7556ZM57.9188 11.0812C56.1334 9.16171 54.1806 7.07773 52.451 5.21311C52.172 5.10343 51.8373 4.99375 51.5025 4.82922C53.5669 7.02289 55.966 9.60044 58.1978 12.0135C58.142 11.6844 58.0304 11.3554 57.9188 11.0812ZM30.1891 0.770944L59.2579 32.4146C59.2579 32.25 59.3137 32.0307 59.3137 31.8661L30.8028 0.825786C30.5796 0.825786 30.4122 0.825786 30.1891 0.770944ZM33.5367 1.09999L59.4253 29.6176C59.4253 29.3983 59.4253 29.2337 59.4811 29.0144L34.1505 1.15484C33.9273 1.15484 33.7599 1.09999 33.5367 1.09999ZM37.2749 1.59357L59.5927 26.5465C59.5927 26.3271 59.5927 26.1626 59.5927 25.9432L37.9445 1.64841C37.7213 1.64841 37.4981 1.59357 37.2749 1.59357ZM59.2579 17.2783L46.4252 3.29366C46.202 3.23882 45.9231 3.18397 45.6999 3.12913L59.3137 17.9912C59.3137 17.717 59.3137 17.4976 59.2579 17.2783ZM59.6485 23.0915C49.3823 11.5747 43.8587 5.43248 40.9574 2.14198C40.7342 2.08714 40.511 2.08714 40.2878 2.0323C45.2535 7.5713 55.1291 18.7042 59.6485 23.6947C59.6485 23.5302 59.6485 23.3108 59.6485 23.0915ZM59.5369 20.5688L43.5797 2.6904C43.3565 2.63556 43.1334 2.58072 42.9102 2.52588L59.5927 21.2269C59.5927 21.0075 59.5369 20.7881 59.5369 20.5688ZM6.08591 3.18398C12.6138 9.5456 47.7085 43.6571 56.3008 51.993C56.3566 51.8285 56.3566 51.664 56.4124 51.4994C47.5969 42.9441 13.1718 9.49076 6.47647 2.96461C6.36488 3.01945 6.1975 3.12913 6.08591 3.18398ZM13.395 0.990311L57.5841 45.4669C57.6399 45.3023 57.6399 45.1378 57.6957 44.9733L13.8971 0.935469C13.7297 0.935469 13.5624 0.990311 13.395 0.990311ZM10.8284 1.48389L57.1935 47.3863C57.2493 47.2218 57.2493 47.0573 57.3051 46.8927L11.3306 1.3742C11.1632 1.3742 10.9958 1.42904 10.8284 1.48389ZM4.41208 4.50017C7.87133 7.84551 19.086 18.7041 55.6313 53.9673C55.6871 53.8028 55.7429 53.6931 55.7987 53.5286C47.5969 45.5765 12.2791 11.5199 4.69105 4.17112C4.63526 4.28081 4.52367 4.39049 4.41208 4.50017ZM27.3436 0.606419L59.0905 34.334C59.0905 34.1695 59.1463 33.9501 59.1463 33.7856L27.9015 0.606419C27.7341 0.606419 27.5109 0.606419 27.3436 0.606419ZM8.37348 2.14198C14.7898 8.33909 47.9317 40.6956 56.8588 49.3606C56.9146 49.1961 56.9145 49.0316 56.9703 48.867C47.7085 39.9279 15.5709 8.50361 8.81983 2.0323C8.65245 2.0323 8.54086 2.08714 8.37348 2.14198ZM25.056 0.496736L58.8116 36.6374C58.8116 36.4728 58.8674 36.2535 58.8674 36.0889L25.6697 0.496736C25.4465 0.496736 25.2792 0.496736 25.056 0.496736ZM16.7426 0.661261L57.9188 43.4377C57.9188 43.2732 57.9746 43.1087 57.9746 42.9441L17.3006 0.606419C17.0774 0.606419 16.91 0.606419 16.7426 0.661261ZM19.4766 0.496736L58.1978 41.2441C58.1978 41.0795 58.2536 40.915 58.2536 40.6956L20.0345 0.496736C19.8671 0.496736 19.6997 0.496736 19.4766 0.496736Z" fill="black"/>
<path opacity="0.3" d="M37.387 23.0367C38.3913 22.5432 44.6961 17.4429 44.8634 17.6074C45.0308 17.7719 59.2026 32.8534 59.2026 32.9631C59.2026 33.1276 57.3614 52.1576 55.1296 54.8449C52.8978 57.5321 53.9579 58.3547 50.8892 59.1225C47.8205 59.9451 42.4085 59.1774 42.4085 59.1774L36.1037 58.5741L22.3225 45.0282L19.9234 39.7086L13.0049 33.2921L37.387 23.0367Z" fill="black"/>
<path d="M42.8542 17.6074L13.1717 30.6597C11.8884 31.2081 12 33.0179 13.2832 33.4566L17.691 34.9373C18.1374 35.1018 18.4721 35.4309 18.6395 35.8148L21.7082 44.0959C22.043 44.9185 22.9915 45.3024 23.8284 44.9185L28.2361 42.67C28.7383 42.4506 29.2962 42.4506 29.7426 42.7248L38.1675 47.9348C39.0602 48.4832 40.2877 47.9896 40.4551 46.8928L44.9744 19.1978C45.1976 18.0461 43.9701 17.1138 42.8542 17.6074Z" fill="white"/>
<path d="M29.6871 42.7248C29.6871 42.7248 23.3824 38.7213 23.1034 38.7213C22.8244 38.7213 36.773 25.3948 36.773 25.1206L18.1377 35.1566" fill="white"/>
<path d="M46.9833 60C45.4211 60 43.6357 59.8355 41.7387 59.671C39.0606 59.4516 35.9919 59.1774 32.4768 59.2322C30.0219 59.2322 27.7343 59.3419 25.5583 59.4516C15.348 59.8355 8.59685 60.1097 2.79424 51.9383C-0.553418 47.1671 -0.107064 28.1919 0.227702 20.2398C0.227702 20.0205 0.227702 19.9108 0.227702 19.9108C0.283497 19.4172 0.562468 8.77793 3.79854 4.55513C10.0475 -3.61627 46.1464 0.716216 54.5714 5.81649C64.6144 11.9039 57.8074 46.7283 56.9705 50.6769C55.4083 58.4096 52.1164 60 46.9833 60ZM33.0906 58.4096C36.3824 58.4096 39.2279 58.629 41.7945 58.8483C50.1078 59.5613 54.2366 59.8903 56.1894 50.5124C59.0907 36.4181 61.9362 11.2458 54.125 6.52943C46.0906 1.59368 10.3823 -2.62912 4.46807 5.0487C1.34359 9.10698 1.06462 19.8011 1.06462 19.9108C1.06462 19.9656 1.06462 20.0753 1.06462 20.2947C0.785645 26.3821 0.171908 46.7832 3.51957 51.4447C9.04321 59.2322 15.2922 59.0129 25.5583 58.5741C27.7343 58.4644 29.9661 58.4096 32.4768 58.3548C32.7 58.4096 32.8674 58.4096 33.0906 58.4096Z" fill="black"/>
<path d="M38.8929 48.5381C38.5582 48.5381 38.1676 48.4284 37.8886 48.2639L29.4637 43.0539C29.1289 42.8345 28.7384 42.8346 28.4036 42.9991L23.9958 45.2476C23.4937 45.5218 22.9358 45.5218 22.4336 45.3024C21.9315 45.0831 21.4851 44.6992 21.3177 44.2056L18.249 35.9245C18.1374 35.5955 17.9143 35.3761 17.5795 35.2664L13.1717 33.7857C12.3906 33.5115 11.8885 32.8534 11.8885 32.0856C11.8327 31.263 12.279 30.6049 13.0044 30.2758L42.7427 17.2235C43.4123 16.9493 44.1376 17.0041 44.6955 17.4429C45.2535 17.8816 45.5325 18.5397 45.4209 19.2527L40.8457 46.9477C40.7341 47.6058 40.3436 48.0993 39.7298 48.3736C39.4509 48.4832 39.1719 48.5381 38.8929 48.5381ZM28.9058 42.0668C29.2405 42.0668 29.6311 42.1764 29.91 42.341L38.335 47.5509C38.6698 47.7703 39.0045 47.7703 39.3951 47.6058C39.7299 47.4412 39.953 47.167 40.0088 46.7831L44.584 19.0881C44.6398 18.7042 44.4724 18.3203 44.1934 18.0461C43.8586 17.8268 43.4681 17.7719 43.0775 17.9365L13.3391 31.0436C12.837 31.263 12.6696 31.7017 12.6696 32.0856C12.6696 32.4146 12.8928 32.9082 13.3949 33.0727L17.8027 34.5535C18.3606 34.718 18.807 35.1567 18.9744 35.7051L22.043 43.9862C22.1546 44.2604 22.3778 44.5346 22.6568 44.6443C22.9358 44.754 23.2705 44.754 23.5495 44.5895L27.9572 42.341C28.292 42.1216 28.6268 42.0668 28.9058 42.0668Z" fill="black"/>
<path d="M29.6872 43.1086C29.6314 43.1086 29.5198 43.1086 29.464 43.0538C27.2322 41.6279 23.494 39.2697 22.9919 39.1052C22.8803 39.0503 22.7687 38.9955 22.7129 38.8858C22.5455 38.5568 22.5455 38.5568 29.5198 31.7564C31.2494 30.0563 33.258 28.1369 34.6529 26.711L18.3051 35.4856C18.082 35.5953 17.8588 35.5405 17.7472 35.3211C17.6356 35.1018 17.6914 34.8824 17.9146 34.7727L36.6057 24.7367C36.7173 24.6818 36.8847 24.6818 36.9963 24.7367C37.1078 24.7915 37.2194 24.9561 37.2194 25.0657C37.2194 25.3399 37.2194 25.3948 30.1335 32.3048C27.567 34.8275 24.7215 37.6245 23.773 38.5568C24.4983 38.9407 26.1721 39.9278 29.9104 42.3408C30.0778 42.4505 30.1335 42.7247 30.022 42.8893C29.9662 43.0538 29.8546 43.1086 29.6872 43.1086Z" fill="black"/>
<path d="M22.7686 45.0282C22.7686 45.0282 22.7128 45.0282 22.7686 45.0282C22.4896 45.0282 22.3223 44.8089 22.3223 44.5895L22.7128 38.6666C22.7128 38.4472 22.936 38.2827 23.1592 38.2827C23.3824 38.2827 23.5497 38.5021 23.5497 38.7214L23.1592 44.6443C23.1592 44.8637 22.9918 45.0282 22.7686 45.0282Z" fill="black"/>
</svg>
